Patient4_TMGait_0pt6_01_right_22_EMG.mot
version=1
nRows=40
nColumns=33
inDegrees=no
endheader
time	1LAddLong	2LGlutMax	3LGlutMed	4LIliopsoas	5LSemiMemb	6LBicFemLong	7LRecFem	8LVastMed	9LVastLat	10LGasMed	11LTibAnt	12lTibPost	13LPeroneusLong	14LSol	15LExtDigLong	16LFlexDigLong	17RAddLong	18RGlutMax	19RGlutMed	20RIliopsoas	21RSemiMemb	22RBicFemLong	23RRecFem	24RVastMed	25RVastLat	26RGasMed	27RTibAnt	28RTibPost	29RPeroneusLong	30RSol	31RExtDigLong	32RFlexDigLong
26.15	0.005341	-0.14191	-0.088501	0.002289	0.005646	-0.008545	0.063629	0.001221	0.094299	-0.034027	-0.009613	-0.081635	0.13092	0.41519	0.0383	-0.042877	0.013275	0.057831	-0.18723	0.086823	0.009155	-0.044556	0.1741	-0.087128	-0.080109	-0.01236	-0.37445	-0.002899	-0.061035	0.050812	-0.001526	-0.012817
26.151	0.005798	-0.16663	-0.13702	0.006104	0.007477	-0.039978	0.057373	0.003662	0.074615	0.06134	-0.020905	-0.043793	0.25742	0.3569	-0.014038	-0.000916	-0.044098	0.002594	-0.066223	-0.025787	0.00412	-0.023346	0.15259	-0.1207	-0.078278	-0.011292	0.039368	-0.003967	-0.082245	0.03418	-0.00061	-0.006561
26.152	0.001068	-0.12619	-0.094299	-0.009003	0.020752	-0.055542	0.07309	0.006561	0.064087	0.87524	-0.007782	0.31082	0.45044	-0.15823	0.005341	-0.001373	-0.076599	-0.008392	-0.012665	-0.070801	0.002594	-0.014191	0.15076	-0.11536	-0.061035	-0.00885	0.63629	-0.004883	-0.049896	-0.045013	-0.001373	0.002899
26.153	0	-0.13534	-0.075073	0.001373	0.006714	-0.042114	0.050354	0.01297	0.080414	0.66376	0.011292	-0.30838	0.89249	-0.38101	0.059967	-0.023346	-0.083008	0.042572	0.071259	-0.079498	0.00824	0.014496	0.11246	-0.061188	-0.060577	0.001068	1.0719	0.004272	-0.026398	-0.14267	-0.002594	0.006409
26.154	-0.004272	-0.15747	-0.068665	0.020142	-0.025635	-0.021667	0.05661	0.00351	0.10696	0.013733	0.02121	0.063782	0.4808	-0.20783	0.036621	-0.033875	-0.059967	-0.001678	0.13794	0.068512	0.006714	0.016937	0.052643	-0.093994	-0.041199	0.002136	1.2671	-0.001831	0.04364	-0.2092	-0.005493	0.00885
26.155	0.002747	-0.1622	-0.009766	0.032349	-0.023499	0.005798	0.014343	0.001678	0.10239	-0.26947	0.039368	0.34409	-0.11765	0.29221	-0.042572	-0.018768	-0.039978	0.041046	0.057831	0.24628	0.014954	-0.001526	-0.040283	-0.11108	-0.039063	0.004883	0.82108	-0.001831	0.11017	-0.22308	-0.003052	0.006561
26.156	0.010071	-0.12894	0.003357	0.012665	0.006561	0.063934	0.026398	0.000763	0.10513	-0.053711	-0.00351	-0.007782	-0.81177	0.65475	-0.028076	0.007935	-0.038452	0.032043	-0.09491	0.22568	0.001984	0.020294	0.004425	-0.14755	-0.04776	0.000153	-0.28183	-0.004425	0.10986	-0.098724	-0.004272	0.004272
26.157	0.015259	-0.10025	0.049744	0.020142	-0.003662	0.12894	0.039368	-0.003967	0.08667	-0.39093	0.029449	-0.056	-0.97549	0.54657	0.075531	-0.014038	-0.025635	0.032806	0.012207	-0.040283	0.001831	0.034485	0.011292	-0.14023	-0.047607	-0.016327	-1.3625	-0.000458	0.004425	0.055084	-0.003967	-0.000458
26.158	0.012665	-0.05188	0.13428	0.001068	0.049591	0.22705	0.076904	-0.001526	0.079651	-0.67383	0.018616	-0.099487	-0.67383	0.10529	0.031891	-0.030365	-0.018921	0.006866	0.2565	-0.16403	0.011139	0.036011	0.01236	-0.11139	-0.045013	-0.020752	-1.1613	-0.002136	-0.080261	0.12436	-0.002747	-0.00061
26.159	0.011902	-0.037842	0.11887	-0.005798	0.055542	0.1799	0.059814	0.00473	0.021057	-0.40573	-0.023346	-0.092468	0.12894	0.017395	-0.023193	-0.030823	-0.012512	0.010834	0.23148	-0.1799	0.01709	0.063782	-0.042725	-0.087128	-0.013123	-0.014954	-0.76965	-0.002441	-0.075989	0.088043	-0.003815	-0.002136
26.16	-0.012054	-0.054779	0.1471	0.002747	0.063171	0.025635	0.074005	0.009308	0.024719	0.14297	0.003967	-0.072479	0.29358	-0.087891	-0.046692	-0.052338	0.013275	-0.0177	0.35645	-0.097046	0.011597	0.026093	-0.093994	-0.050049	-0.04425	-0.007019	-0.04715	-0.002899	-0.22385	0.035095	-0.005646	-0.010223
26.161	-0.003357	-0.052338	0.1329	0.014801	0.038452	-0.04837	0.053253	0.013885	0.064545	0.32898	-0.00412	-0.24994	0.27161	-0.071411	-0.043945	-0.007324	0.054932	-0.076294	0.1828	0.14771	0.02182	0.008698	-0.10773	-0.093384	-0.041046	0	0.46951	-0.000153	-0.23056	0.045624	-0.002289	-0.003662
26.162	-0.004578	-0.019226	0.09491	0.024872	-0.005188	-0.25116	0.02121	0.015564	0.066986	-0.30121	0.000305	0.38559	0.27634	0.030518	-0.009613	-0.036926	0.04837	0.040283	0.15854	0.12604	0.019684	0.005493	-0.10376	-0.085602	-0.025024	-0.016937	0.44327	-0.000153	0.19196	0.045471	-0.000763	-0.013428
26.163	0.001678	-0.005035	0.1326	0.035248	-0.096283	-0.14358	-0.074921	0.024719	0.11536	-0.25559	-0.024567	0.000763	0.21881	-0.31174	-0.024109	0.014343	0.017395	0.023346	0.085144	0.067444	0.002441	0.015259	-0.009308	-0.074615	-0.041504	-0.014496	0.12772	-0.002136	0.62149	0.07782	-0.00351	-0.011444
26.164	0.025482	-0.026093	0.041809	0.03006	-0.16388	-0.058289	-0.061951	0.018768	0.15656	-0.28824	-0.025482	-0.06073	-0.22049	-0.50232	-0.011902	0.010834	-0.012817	-0.006561	-0.16602	-0.028992	-0.062714	0.026245	-0.022583	-0.067902	-0.041046	-0.007935	0.20309	-0.000458	-0.28595	0.087891	-0.003662	-0.00061
26.165	0.027771	-0.066528	0.072327	0.018463	-0.084076	-0.07019	-0.050812	0.006104	0.1355	-0.48843	-0.019073	-0.038147	-0.075836	-0.2945	-0.03891	-0.17288	-0.011139	-0.071564	0.035706	-0.17548	-0.08316	0.013428	0.023041	-0.072479	-0.033417	-0.001678	0.18723	-0.000153	-0.39658	0.046539	-0.000916	-0.005188
26.166	0.027313	-0.054321	0.051727	-0.002136	-0.018921	-0.032501	-0.007324	-0.002136	0.074768	-0.35019	-0.009308	-0.048523	0.023346	-0.036621	-0.049438	-0.054626	-0.005798	-0.022736	0.086517	-0.077057	-0.063782	0.020905	0.015717	-0.049133	-0.040741	-0.007324	0.038605	-0.003052	0.159	0.029297	-0.001221	0.000305
26.167	-0.041199	-0.080719	-0.017548	-0.006714	0.11932	0.057068	0.1178	-0.014343	-0.093536	-0.30914	-0.002899	-0.025024	0.071411	0.1796	0.071259	0.1207	-0.002136	0.030518	0.085907	0.010834	-0.049438	0.050049	-0.023499	-0.036926	-0.031586	-0.007629	-0.083313	-0.005188	0.095978	0.036774	-0.003662	-0.003357
26.168	0.032806	-0.081635	-0.00412	0.010681	0.14664	0.072784	0.12528	-0.017853	-0.015869	-0.2327	0.014038	0.01297	0.058136	0.37537	0.05127	0.034943	-0.002594	0.032806	0.11566	-0.023499	-0.057373	0.030518	-0.043335	-0.042267	-0.039825	-0.000916	-0.33844	-0.006409	0.38986	0.027466	-0.002441	0
26.169	0.006561	-0.052032	-0.047455	-0.005798	0.072479	0.074005	0.13626	0.001373	0.03952	-0.19516	-0.003204	0.039063	0.093842	0.19653	-0.022278	-0.10346	-0.002136	0.037994	0.20096	-0.076904	-0.065308	0.036774	-0.13412	-0.063477	-0.021362	-0.001678	-0.29159	-0.006256	0.42541	0.040894	-0.002136	0.000305
26.17	0.058594	-0.080719	-0.018616	0.00351	0.030823	0.13138	0.077972	-0.000305	0.004272	-0.17593	0.016632	-0.006561	0.11871	0.098114	-0.026245	0.15579	0.023956	-0.018616	0.18845	-0.1088	-0.041046	0.055237	-0.1152	-0.16159	-0.036469	0.000458	-0.14374	-0.002594	-0.094757	-0.024109	-0.00412	0.00824
26.171	-0.027466	-0.045624	0.062866	0.005798	0.045013	0.096283	0.070496	-0.000916	0.020142	-0.084381	0.007324	-0.12436	0.050812	0.3154	-0.0383	0.034943	0.051117	-0.029449	0.19562	-0.16678	-0.032043	0.037231	-0.14435	-0.13962	-0.030365	0.001831	0.057678	-0.001678	-0.56351	-0.059814	-0.004272	0.006866
26.172	-0.015259	-0.00885	0.075836	0.011749	0.023651	0.012207	0.055084	0.001831	0.027008	0.2182	0.007782	0.34515	0.012207	0.31235	-0.019836	-0.17273	0.11246	0.022583	0.12375	-0.036774	-0.050964	-0.041656	-0.11917	-0.16541	-0.034943	0.00061	0.066071	-0.003967	-0.52994	-0.083923	-0.004425	0.009308
26.173	-0.010529	0.010529	0.070953	0.037384	0.023041	-0.044403	0.043488	0.00885	0.015259	0.10605	0.009918	0.080872	-0.021362	0.19379	0.030975	0.42984	0.087738	0.038757	0.080261	0.27847	-0.058899	0.014801	-0.12482	-0.12695	-0.031586	-0.00351	0.054932	-0.001221	0.18662	-0.072021	0.000305	0.000305
26.174	0.020599	0.042267	0.10925	0.002441	0.034027	-0.10223	0.007935	0.00351	0.052795	-0.090027	0.000305	-0.17502	-0.089417	0.13306	0.062866	-0.33676	0.050354	0.046539	0.06897	0.31601	-0.018463	0.074768	-0.068817	-0.14893	-0.031281	-0.001526	-0.040588	-0.001373	0.74661	-0.057983	-0.000916	0.006104
26.175	0.02594	0.084381	0.13901	-0.004578	0.028992	-0.098419	-0.014954	-0.001068	0.056915	-0.02121	0.012512	-0.16647	-0.16022	-0.13397	-0.012817	-0.070496	-0.006409	0.048523	0.18494	0.21927	-0.005341	0.043335	-0.059204	-0.15747	-0.021973	-0.007477	0.15762	-0.002289	0.54382	-0.084686	-0.001068	0.003052
26.176	0.031433	0.084991	0.15335	0.000458	0.023804	-0.086823	0.018921	0.004883	0.057526	0.024567	0.019836	-0.072937	-0.015869	-0.392	0.00061	0.33768	-0.04425	0.039368	0.21347	0.12253	-0.041504	0.046234	0.002441	-0.10178	-0.017395	-0.010986	0.43182	-0.003815	-0.093079	-0.075684	-0.00412	0.000305
26.177	0.014801	0.002594	0.09201	-0.00824	0.012054	0.000458	0.024414	0.006714	0.050507	0.087433	0	-0.059662	-0.00824	0.15854	0.019226	0.23804	-0.089569	-0.074158	0.19516	0.061035	-0.090332	0.092926	0.12756	0.006409	-0.032349	-0.007324	0.21988	-0.002136	-0.087891	-0.07019	-0.001678	0.005035
26.178	0.024872	0.035858	0.1445	0.000763	0.005341	0.10742	0.050354	0.006104	0.042877	0.065308	0.001984	0.022125	-0.052032	0.2945	0.001831	-0.068054	-0.11627	0.00824	0.21591	-0.079956	-0.03418	0.09201	0.1355	0.039978	-0.011292	-0.007782	-0.2977	0.001068	0.10895	0.016022	-0.003357	-0.003052
26.179	0.00885	0.072784	0.063171	-0.005646	-0.000763	0.13214	0.054932	0.009613	0.050812	0.10941	0.009155	-0.000916	-0.10315	0.18478	-0.000916	-0.15717	-0.085907	0.072784	0.22751	-0.15106	0.098724	0.000305	0.14206	0.032501	-0.010529	-0.006561	-0.27863	-0.00351	-0.11322	-0.021667	-0.00351	-0.003357
26.18	0.009155	0.05722	-0.10284	0.012512	0.001373	0.029297	0.040436	-0.000305	0.076599	-0.042267	0.001984	-0.07431	-0.13977	-0.022888	0.023193	0.38696	-0.062714	-0.014801	0.14954	-0.16083	0.043182	-0.008545	0.12878	-0.030365	-0.019989	-0.002136	-0.11322	0.006714	-0.4068	-0.089874	-0.000916	0.001526
26.181	0.017853	0.091553	-0.11917	0.000916	0.005341	-0.026855	0.058289	-0.002594	0.075378	-0.12116	0.011749	-0.024872	-0.29846	-0.56992	0.036163	0.21332	-0.046387	0.023804	0.37537	-0.081787	0.020142	-0.007019	0.11917	-0.065308	-0.018616	-0.012054	0.11536	-0.005035	-0.58838	-0.047607	-0.004578	0.003967
26.182	0.014954	0.061035	-0.019379	0.018463	0.011749	-0.087891	0.043793	0.000458	0.068512	-0.16129	-0.008087	-0.004425	-0.13763	-0.93079	0.046692	-0.12177	-0.037842	0.034485	0.31555	0.029602	-0.010681	-0.003357	0.11841	-0.070496	-0.020599	-0.002289	0.3122	-0.003967	-0.63217	-0.059662	-0.003204	0.005646
26.183	0.001373	0.054321	0.19577	0.031281	0.011597	-0.095367	0.016174	-0.001678	0.07843	-0.14481	-0.013428	-0.010529	1.0524	-0.41138	0.0354	-0.10071	-0.019836	-0.00885	0.11749	0.00885	-0.021057	-0.016174	0.058441	-0.068054	-0.019379	-0.000305	0.53268	0.00061	-0.41092	-0.12451	-0.005188	0.002441
26.184	0.005951	0.018921	0.22232	0.016327	-0.004272	-0.054474	0.005188	0.008392	0.064087	-0.018311	0.016327	-0.012207	0.50156	0.010986	0.015106	-0.04837	-0.012817	-0.027161	0.056458	-0.00061	-0.019531	0.007935	0.024261	-0.10056	-0.025024	0.004272	0.52521	0.011597	0.007629	-0.085449	0.00061	0.000458
26.185	0.012054	0.009155	0.19836	0.016632	0.001373	-0.14297	-0.016327	0.002289	0.011597	0.052795	0.010834	-0.016937	0.20905	-0.14648	0.018158	-0.02121	0.009613	-0.038147	-0.059204	-0.06424	-0.048218	0.019226	-0.053406	-0.074005	-0.020294	0.001678	0.27954	-0.004425	0.1506	-0.037079	-0.00351	0.000153
26.186	0.001373	0.009918	0.22766	-0.002899	-0.007782	-0.16251	0.01236	-0.024261	-0.026245	0.023499	0.000305	-0.022888	0.13184	-0.23025	-0.023804	-0.01358	0.004425	-0.006561	0.25925	-0.12299	-0.044403	0.036926	-0.055542	-0.098114	-0.025482	0	-0.13962	0.005341	0.25162	-0.053711	-0.002899	-0.000305
26.187	0.01236	0.042114	0.17731	-0.022888	0.012665	-0.11688	-0.001068	0.002747	-0.000763	0.040741	-0.024109	-0.018158	-0.22247	-0.22339	-0.018921	-0.013123	0.005951	-0.009003	1.0248	-0.088501	-0.031433	0.035248	-0.092316	-0.084839	-0.015564	-0.007782	-0.50339	-0.001068	0.17777	-0.083466	-0.005188	0.00473
26.188	0.018158	0.010681	0.13321	-0.008698	-0.002136	-0.023193	0.005341	0.003204	0.032654	0.063477	-0.027924	-0.015259	-0.6192	-0.10941	-0.023193	-0.011444	0.016632	-0.090942	0.45578	0.14069	-0.036469	0.060425	-0.11856	-0.045929	-0.015106	-0.011749	-0.45181	-0.003357	0.15274	-0.050507	-0.006409	0.001221
26.189	0.011139	-0.05188	0.12405	-0.00412	-0.001831	0.10513	0.010071	0.005341	0.016632	0.026245	-0.0177	-0.021057	-0.15366	0.16541	-0.047302	-0.011139	0.002289	-0.1416	-0.16159	0.15595	-0.060577	0.033722	-0.075684	-0.084076	-0.044403	-0.010986	-0.057831	-0.003204	0.22003	-0.03479	-0.002899	0.001984
